<mxfile host="app.diagrams.net" modified="2023-11-24T17:54:20.462Z" agent="Mozilla/5.0 (Windows NT 10.0; Win64; x64) AppleWebKit/537.36 (KHTML, like Gecko) Chrome/119.0.0.0 Safari/537.36" etag="IUBeMEY5E7HY4YzVMSJb" version="22.1.3" type="device">
  <diagram name="Page-1" id="t2ifRCdldT6WOgD1jj9B">
    <mxGraphModel dx="1744" dy="2199" grid="1" gridSize="10" guides="1" tooltips="1" connect="1" arrows="1" fold="1" page="1" pageScale="1" pageWidth="850" pageHeight="1100" math="0" shadow="0">
      <root>
        <mxCell id="0" />
        <mxCell id="1" parent="0" />
        <mxCell id="PbBPsz-gRTcFtRLeuZX8-1" value="&lt;span style=&quot;font-size: 18px;&quot;&gt;Login&lt;/span&gt;" style="ellipse;whiteSpace=wrap;html=1;" vertex="1" parent="1">
          <mxGeometry x="716" y="-780" width="120" height="80" as="geometry" />
        </mxCell>
        <mxCell id="PbBPsz-gRTcFtRLeuZX8-2" value="&lt;span style=&quot;font-size: 18px;&quot;&gt;Sign Up&lt;/span&gt;" style="ellipse;whiteSpace=wrap;html=1;" vertex="1" parent="1">
          <mxGeometry x="720" y="-660" width="120" height="80" as="geometry" />
        </mxCell>
        <mxCell id="PbBPsz-gRTcFtRLeuZX8-3" value="&lt;span style=&quot;font-size: 18px;&quot;&gt;&amp;nbsp;View and Check all Parking Slot&lt;span style=&quot;white-space: pre;&quot;&gt;&#x9;&lt;/span&gt;&lt;/span&gt;" style="ellipse;whiteSpace=wrap;html=1;" vertex="1" parent="1">
          <mxGeometry x="675" y="-540" width="210" height="80" as="geometry" />
        </mxCell>
        <mxCell id="PbBPsz-gRTcFtRLeuZX8-4" value="&lt;span style=&quot;font-size: 18px;&quot;&gt;Book Parking&lt;/span&gt;" style="ellipse;whiteSpace=wrap;html=1;" vertex="1" parent="1">
          <mxGeometry x="720" y="-420" width="130" height="80" as="geometry" />
        </mxCell>
        <mxCell id="PbBPsz-gRTcFtRLeuZX8-5" value="&lt;span style=&quot;font-size: 18px;&quot;&gt;View Booking History&lt;/span&gt;" style="ellipse;whiteSpace=wrap;html=1;" vertex="1" parent="1">
          <mxGeometry x="715" y="-160" width="130" height="80" as="geometry" />
        </mxCell>
        <mxCell id="PbBPsz-gRTcFtRLeuZX8-6" value="&lt;span style=&quot;font-size: 18px;&quot;&gt;View All Users Booking Data&lt;/span&gt;" style="ellipse;whiteSpace=wrap;html=1;" vertex="1" parent="1">
          <mxGeometry x="705" y="-40" width="160" height="100" as="geometry" />
        </mxCell>
        <mxCell id="PbBPsz-gRTcFtRLeuZX8-34" style="edgeStyle=orthogonalEdgeStyle;rounded=0;orthogonalLoop=1;jettySize=auto;html=1;entryX=0;entryY=0.5;entryDx=0;entryDy=0;" edge="1" parent="1" source="PbBPsz-gRTcFtRLeuZX8-14" target="PbBPsz-gRTcFtRLeuZX8-4">
          <mxGeometry relative="1" as="geometry">
            <Array as="points">
              <mxPoint x="610" y="-370" />
              <mxPoint x="610" y="-380" />
            </Array>
          </mxGeometry>
        </mxCell>
        <mxCell id="PbBPsz-gRTcFtRLeuZX8-39" style="edgeStyle=orthogonalEdgeStyle;rounded=0;orthogonalLoop=1;jettySize=auto;html=1;entryX=0;entryY=0.5;entryDx=0;entryDy=0;" edge="1" parent="1" source="PbBPsz-gRTcFtRLeuZX8-14" target="PbBPsz-gRTcFtRLeuZX8-38">
          <mxGeometry relative="1" as="geometry">
            <Array as="points">
              <mxPoint x="470" y="-340" />
              <mxPoint x="640" y="-340" />
              <mxPoint x="640" y="-260" />
            </Array>
          </mxGeometry>
        </mxCell>
        <mxCell id="PbBPsz-gRTcFtRLeuZX8-14" value="&lt;font style=&quot;font-size: 20px;&quot;&gt;User&lt;/font&gt;" style="text;html=1;strokeColor=none;fillColor=none;align=center;verticalAlign=middle;whiteSpace=wrap;rounded=0;" vertex="1" parent="1">
          <mxGeometry x="440" y="-380" width="60" height="30" as="geometry" />
        </mxCell>
        <mxCell id="PbBPsz-gRTcFtRLeuZX8-29" style="edgeStyle=orthogonalEdgeStyle;rounded=0;orthogonalLoop=1;jettySize=auto;html=1;entryX=0;entryY=0.5;entryDx=0;entryDy=0;" edge="1" parent="1" source="PbBPsz-gRTcFtRLeuZX8-20" target="PbBPsz-gRTcFtRLeuZX8-1">
          <mxGeometry relative="1" as="geometry">
            <Array as="points">
              <mxPoint x="470" y="-740" />
            </Array>
          </mxGeometry>
        </mxCell>
        <mxCell id="PbBPsz-gRTcFtRLeuZX8-30" style="edgeStyle=orthogonalEdgeStyle;rounded=0;orthogonalLoop=1;jettySize=auto;html=1;entryX=0;entryY=0.5;entryDx=0;entryDy=0;" edge="1" parent="1" source="PbBPsz-gRTcFtRLeuZX8-20" target="PbBPsz-gRTcFtRLeuZX8-2">
          <mxGeometry relative="1" as="geometry">
            <Array as="points">
              <mxPoint x="550" y="-470" />
              <mxPoint x="550" y="-620" />
            </Array>
          </mxGeometry>
        </mxCell>
        <mxCell id="PbBPsz-gRTcFtRLeuZX8-31" style="edgeStyle=orthogonalEdgeStyle;rounded=0;orthogonalLoop=1;jettySize=auto;html=1;entryX=0;entryY=0.5;entryDx=0;entryDy=0;" edge="1" parent="1" source="PbBPsz-gRTcFtRLeuZX8-20" target="PbBPsz-gRTcFtRLeuZX8-3">
          <mxGeometry relative="1" as="geometry">
            <Array as="points">
              <mxPoint x="640" y="-431" />
              <mxPoint x="640" y="-500" />
            </Array>
          </mxGeometry>
        </mxCell>
        <mxCell id="PbBPsz-gRTcFtRLeuZX8-20" value="" style="sketch=0;outlineConnect=0;fontColor=#232F3E;gradientColor=none;fillColor=#232F3D;strokeColor=none;dashed=0;verticalLabelPosition=bottom;verticalAlign=top;align=center;html=1;fontSize=12;fontStyle=0;aspect=fixed;pointerEvents=1;shape=mxgraph.aws4.user;" vertex="1" parent="1">
          <mxGeometry x="431" y="-470" width="78" height="78" as="geometry" />
        </mxCell>
        <mxCell id="PbBPsz-gRTcFtRLeuZX8-42" style="edgeStyle=orthogonalEdgeStyle;rounded=0;orthogonalLoop=1;jettySize=auto;html=1;entryX=1;entryY=0.5;entryDx=0;entryDy=0;" edge="1" parent="1" source="PbBPsz-gRTcFtRLeuZX8-23" target="PbBPsz-gRTcFtRLeuZX8-41">
          <mxGeometry relative="1" as="geometry">
            <Array as="points">
              <mxPoint x="1159" y="140" />
            </Array>
          </mxGeometry>
        </mxCell>
        <mxCell id="PbBPsz-gRTcFtRLeuZX8-23" value="&lt;font style=&quot;font-size: 20px;&quot;&gt;Admin&lt;/font&gt;" style="text;html=1;strokeColor=none;fillColor=none;align=center;verticalAlign=middle;whiteSpace=wrap;rounded=0;" vertex="1" parent="1">
          <mxGeometry x="1129" y="-380" width="60" height="30" as="geometry" />
        </mxCell>
        <mxCell id="PbBPsz-gRTcFtRLeuZX8-36" style="edgeStyle=orthogonalEdgeStyle;rounded=0;orthogonalLoop=1;jettySize=auto;html=1;entryX=1;entryY=0.5;entryDx=0;entryDy=0;" edge="1" parent="1" source="PbBPsz-gRTcFtRLeuZX8-24" target="PbBPsz-gRTcFtRLeuZX8-1">
          <mxGeometry relative="1" as="geometry" />
        </mxCell>
        <mxCell id="PbBPsz-gRTcFtRLeuZX8-37" style="edgeStyle=orthogonalEdgeStyle;rounded=0;orthogonalLoop=1;jettySize=auto;html=1;entryX=1;entryY=0.5;entryDx=0;entryDy=0;" edge="1" parent="1" source="PbBPsz-gRTcFtRLeuZX8-24" target="PbBPsz-gRTcFtRLeuZX8-6">
          <mxGeometry relative="1" as="geometry">
            <Array as="points">
              <mxPoint x="1159" y="-390" />
              <mxPoint x="994" y="-390" />
              <mxPoint x="994" y="10" />
            </Array>
          </mxGeometry>
        </mxCell>
        <mxCell id="PbBPsz-gRTcFtRLeuZX8-24" value="" style="sketch=0;outlineConnect=0;fontColor=#232F3E;gradientColor=none;fillColor=#232F3D;strokeColor=none;dashed=0;verticalLabelPosition=bottom;verticalAlign=top;align=center;html=1;fontSize=12;fontStyle=0;aspect=fixed;pointerEvents=1;shape=mxgraph.aws4.user;" vertex="1" parent="1">
          <mxGeometry x="1120" y="-470" width="78" height="78" as="geometry" />
        </mxCell>
        <mxCell id="PbBPsz-gRTcFtRLeuZX8-35" style="edgeStyle=orthogonalEdgeStyle;rounded=0;orthogonalLoop=1;jettySize=auto;html=1;entryX=0.006;entryY=0.626;entryDx=0;entryDy=0;entryPerimeter=0;" edge="1" parent="1" source="PbBPsz-gRTcFtRLeuZX8-14" target="PbBPsz-gRTcFtRLeuZX8-5">
          <mxGeometry relative="1" as="geometry">
            <Array as="points">
              <mxPoint x="470" y="-310" />
              <mxPoint x="610" y="-310" />
              <mxPoint x="610" y="-150" />
            </Array>
          </mxGeometry>
        </mxCell>
        <mxCell id="PbBPsz-gRTcFtRLeuZX8-38" value="&lt;span style=&quot;font-size: 18px;&quot;&gt;Payment&lt;/span&gt;" style="ellipse;whiteSpace=wrap;html=1;" vertex="1" parent="1">
          <mxGeometry x="715" y="-300" width="130" height="80" as="geometry" />
        </mxCell>
        <mxCell id="PbBPsz-gRTcFtRLeuZX8-41" value="&lt;span style=&quot;font-size: 18px;&quot;&gt;Manage Bookings&lt;/span&gt;" style="ellipse;whiteSpace=wrap;html=1;" vertex="1" parent="1">
          <mxGeometry x="715" y="100" width="130" height="80" as="geometry" />
        </mxCell>
      </root>
    </mxGraphModel>
  </diagram>
</mxfile>
